<svg width="56" height="34" viewBox="0 0 56 34" fill="none" xmlns="http://www.w3.org/2000/svg">
<path d="M28.0352 0C45.9376 0.000261096 55.9481 15.5753 56 15.6562C55.9565 15.7342 46.0385 33.4636 28.0352 33.4639C11.3177 33.4639 0.0478352 15.7316 0 15.6562C0.0532205 15.5761 10.417 0 28.0352 0ZM28 4.09766C20.8338 4.09766 15.0244 9.90701 15.0244 17.0732C15.0247 24.2393 20.8339 30.0488 28 30.0488C35.1661 30.0488 40.9753 24.2393 40.9756 17.0732C40.9756 9.90703 35.1662 4.09768 28 4.09766ZM28 10.9268C31.3945 10.9268 34.1465 13.6787 34.1465 17.0732C34.1463 20.4677 31.3944 23.2197 28 23.2197C24.6057 23.2196 21.8537 20.4676 21.8535 17.0732C21.8535 13.6788 24.6056 10.9269 28 10.9268Z" fill="#9DC493"/>
</svg>
